<?xml version="1.0" standalone="no"?><!DOCTYPE svg PUBLIC "-//W3C//DTD SVG 1.1//EN" "http://www.w3.org/Graphics/SVG/1.1/DTD/svg11.dtd"><svg t="1732801912150" class="icon" viewBox="0 0 1024 1024" version="1.1" xmlns="http://www.w3.org/2000/svg" p-id="41250" xmlns:xlink="http://www.w3.org/1999/xlink" width="200" height="200"><path d="M170.666667 213.333333m64 0l554.666666 0q64 0 64 64l0 0q0 64-64 64l-554.666666 0q-64 0-64-64l0 0q0-64 64-64Z" fill="#3699FF" p-id="41251"></path><path d="M234.666667 640h554.666666a64 64 0 0 1 0 128h-554.666666a64 64 0 0 1 0-128z m0-213.333333h298.666666a64 64 0 0 1 0 128h-298.666666a64 64 0 0 1 0-128z" fill="#3699FF" opacity=".3" p-id="41252"></path></svg>