<?xml version="1.0" standalone="no"?><!DOCTYPE svg PUBLIC "-//W3C//DTD SVG 1.1//EN" "http://www.w3.org/Graphics/SVG/1.1/DTD/svg11.dtd"><svg t="1732801860089" class="icon" viewBox="0 0 1024 1024" version="1.1" xmlns="http://www.w3.org/2000/svg" p-id="38462" xmlns:xlink="http://www.w3.org/1999/xlink" width="200" height="200"><path d="M359.12841 545.584151a208.421112 208.421112 0 1 1 306.501636 0 415.309717 415.309717 0 0 1 245.201309 283.003177 510.83606 510.83606 0 1 0-799.96927 0A414.798881 414.798881 0 0 1 359.12841 545.584151z" fill="#00A9EB" p-id="38463"></path><path d="M406.636164 408.680086A105.743064 105.743064 0 1 0 512.379228 301.404514 105.743064 105.743064 0 0 0 406.636164 408.680086zM512.379228 617.612035A310.077488 310.077488 0 0 0 202.812576 919.516146a510.83606 510.83606 0 0 0 619.133304 0A310.588325 310.588325 0 0 0 512.379228 617.612035z" fill="#00A9EB" p-id="38464"></path></svg>