<?xml version="1.0" standalone="no"?><!DOCTYPE svg PUBLIC "-//W3C//DTD SVG 1.1//EN" "http://www.w3.org/Graphics/SVG/1.1/DTD/svg11.dtd"><svg t="1732784808756" class="icon" viewBox="0 0 1024 1024" version="1.1" xmlns="http://www.w3.org/2000/svg" p-id="9495" xmlns:xlink="http://www.w3.org/1999/xlink" width="200" height="200"><path d="M561.749333 767.018667l-17.152-83.626667a170.666667 170.666667 0 1 0-143.274666-38.4L344.746667 708.864a256 256 0 1 1 217.002666 58.154667z" fill="#e6e6e6" p-id="9496"></path><path d="M400.170667 388.608l-112.981334-128a341.333333 341.333333 0 1 1 2.645334 514.261333l110.72-129.92a170.666667 170.666667 0 1 0-0.426667-256.341333z" fill="#a0c2e3" p-id="9497"></path><path d="M904.106667 345.472l-236.544 98.304a170.112 170.112 0 0 0-108.032-92.245333l81.536-242.773334a425.130667 425.130667 0 0 1 241.194666 193.578667c8.192 14.122667 15.445333 28.544 21.802667 43.136zM878.165333 736.128a424.746667 424.746667 0 0 1-152.064 149.034667 426.154667 426.154667 0 0 1-130.133333 49.066666l-51.370667-250.88c18.346667-3.413333 36.437333-10.026667 53.504-19.882666 25.173333-14.506667 45.226667-34.474667 59.562667-57.557334l220.501333 130.218667zM265.984 167.594667L411.264 378.453333a170.794667 170.794667 0 0 0-68.864 147.456l-255.616 15.36a426.88 426.88 0 0 1 179.2-373.674666z" fill="#5182e4" p-id="9498"></path></svg>